<svg id="Icon_Set" enable-background="new 0 0 64 64" height="512" viewBox="0 0 64 64" width="512" xmlns="http://www.w3.org/2000/svg"><path d="m50.025 56h-43c-.552 0-1-.448-1-1v-50c0-.552.448-1 1-1h43c.552 0 1 .448 1 1v50c0 .552-.448 1-1 1z" fill="#c2c2c2"/><path d="m50.025 56.5h-43c-.827 0-1.5-.673-1.5-1.5v-50c0-.827.673-1.5 1.5-1.5h43c.827 0 1.5.673 1.5 1.5v50c0 .827-.673 1.5-1.5 1.5zm-43-52c-.276 0-.5.224-.5.5v50c0 .276.224.5.5.5h43c.276 0 .5-.224.5-.5v-50c0-.276-.224-.5-.5-.5z" fill="#212a41"/><path d="m53.025 56h-43c-.552 0-1-.448-1-1v-50c0-.552.448-1 1-1h43c.552 0 1 .448 1 1v50c0 .552-.448 1-1 1z" fill="#e0e0e0"/><path d="m53.025 56.5h-43c-.827 0-1.5-.673-1.5-1.5v-50c0-.827.673-1.5 1.5-1.5h43c.827 0 1.5.673 1.5 1.5v50c0 .827-.673 1.5-1.5 1.5zm-43-52c-.276 0-.5.224-.5.5v50c0 .276.224.5.5.5h43c.276 0 .5-.224.5-.5v-50c0-.276-.224-.5-.5-.5z" fill="#212a41"/><path d="m11.025 54.5c-.276 0-.5-.224-.5-.5v-48c0-.276.224-.5.5-.5s.5.224.5.5v48c0 .276-.224.5-.5.5z" fill="#fefefe"/><path d="m52.025 54.5c-.276 0-.5-.224-.5-.5v-48c0-.276.224-.5.5-.5s.5.224.5.5v48c0 .276-.224.5-.5.5z" fill="#c2c2c2"/><g fill="#212a41"><path d="m33.025 31.5h-16c-.276 0-.5-.224-.5-.5s.224-.5.5-.5h16c.276 0 .5.224.5.5s-.224.5-.5.5z"/><path d="m46.025 31.5h-7c-.276 0-.5-.224-.5-.5s.224-.5.5-.5h7c.276 0 .5.224.5.5s-.224.5-.5.5z"/><path d="m33.025 35.5h-16c-.276 0-.5-.224-.5-.5s.224-.5.5-.5h16c.276 0 .5.224.5.5s-.224.5-.5.5z"/><path d="m46.025 35.5h-7c-.276 0-.5-.224-.5-.5s.224-.5.5-.5h7c.276 0 .5.224.5.5s-.224.5-.5.5z"/><path d="m33.025 39.5h-16c-.276 0-.5-.224-.5-.5s.224-.5.5-.5h16c.276 0 .5.224.5.5s-.224.5-.5.5z"/><path d="m46.025 39.5h-7c-.276 0-.5-.224-.5-.5s.224-.5.5-.5h7c.276 0 .5.224.5.5s-.224.5-.5.5z"/><path d="m46.025 42.5h-7c-.276 0-.5-.224-.5-.5s.224-.5.5-.5h7c.276 0 .5.224.5.5s-.224.5-.5.5z"/><path d="m19.525 16.5h-2.5c-.276 0-.5-.224-.5-.5s.224-.5.5-.5h2.5c.551 0 1-.449 1-1s-.449-1-1-1h-1c-1.103 0-2-.897-2-2s.897-2 2-2h2.5c.276 0 .5.224.5.5s-.224.5-.5.5h-2.5c-.551 0-1 .449-1 1s.449 1 1 1h1c1.103 0 2 .897 2 2s-.897 2-2 2z"/><path d="m19.025 10.5c-.276 0-.5-.224-.5-.5v-2c0-.276.224-.5.5-.5s.5.224.5.5v2c0 .276-.224.5-.5.5z"/><path d="m19.025 18.5c-.276 0-.5-.224-.5-.5v-2c0-.276.224-.5.5-.5s.5.224.5.5v2c0 .276-.224.5-.5.5z"/></g><path d="m52.975 60h-14c-1.105 0-2-.895-2-2v-14c0-1.105.895-2 2-2h14c1.105 0 2 .895 2 2v14c0 1.105-.896 2-2 2z" fill="#a0b570"/><path d="m52.975 60.5h-14c-1.378 0-2.5-1.122-2.5-2.5v-14c0-1.378 1.122-2.5 2.5-2.5h14c1.378 0 2.5 1.122 2.5 2.5v14c0 1.378-1.121 2.5-2.5 2.5zm-14-18c-.827 0-1.5.673-1.5 1.5v14c0 .827.673 1.5 1.5 1.5h14c.827 0 1.5-.673 1.5-1.5v-14c0-.827-.673-1.5-1.5-1.5z" fill="#212a41"/><path d="m55.975 60h-14c-1.105 0-2-.895-2-2v-14c0-1.105.895-2 2-2h14c1.105 0 2 .895 2 2v14c0 1.105-.896 2-2 2z" fill="#bed38e"/><path d="m55.975 60.5h-14c-1.378 0-2.5-1.122-2.5-2.5v-14c0-1.378 1.122-2.5 2.5-2.5h14c1.378 0 2.5 1.122 2.5 2.5v14c0 1.378-1.121 2.5-2.5 2.5zm-14-18c-.827 0-1.5.673-1.5 1.5v14c0 .827.673 1.5 1.5 1.5h14c.827 0 1.5-.673 1.5-1.5v-14c0-.827-.673-1.5-1.5-1.5z" fill="#212a41"/><path d="m41.975 58.5c-.276 0-.5-.224-.5-.5v-14c0-.276.224-.5.5-.5s.5.224.5.5v14c0 .276-.224.5-.5.5z" fill="#dcf1ac"/><path d="m55.975 58.5c-.276 0-.5-.224-.5-.5v-14c0-.276.224-.5.5-.5s.5.224.5.5v14c0 .276-.224.5-.5.5z" fill="#a0b570"/><path d="m54.985 47.075c-.586-.586-1.536-.586-2.121 0l-5.303 5.303-2.475-2.475c-.586-.586-1.536-.586-2.121 0-.586.586-.586 1.535 0 2.121l3.536 3.536c.586.586 1.536.586 2.121 0l6.364-6.364c.585-.585.585-1.535-.001-2.121z" fill="#e0e0e0"/><path d="m47.561 56.5c-.534 0-1.036-.208-1.414-.586l-3.536-3.535c-.78-.78-.78-2.049 0-2.829.78-.779 2.049-.779 2.829 0l2.121 2.122 4.95-4.95c.78-.779 2.048-.779 2.829 0 .78.78.78 2.049 0 2.829l-6.364 6.364c-.379.377-.881.585-1.415.585zm-3.536-6.535c-.256 0-.513.098-.708.292-.189.189-.293.44-.293.707 0 .268.104.519.293.708l3.536 3.535c.378.378 1.036.378 1.414 0l6.364-6.364c.39-.39.39-1.024 0-1.415s-1.025-.389-1.415 0l-5.303 5.304c-.188.188-.52.188-.707 0l-2.475-2.475c-.193-.195-.45-.292-.706-.292z" fill="#212a41"/><path d="m17.025 23h29v4h-29z" fill="#b7c0d7"/><path d="m46.025 27.5h-29c-.276 0-.5-.224-.5-.5v-4c0-.276.224-.5.5-.5h29c.276 0 .5.224.5.5v4c0 .276-.224.5-.5.5zm-28.5-1h28v-3h-28z" fill="#212a41"/></svg>