<svg height="503pt" viewBox="1 -1 503.9995 503" width="503pt" xmlns="http://www.w3.org/2000/svg"><path d="m280.171875 486.398438-210.179687-210.179688 271.71875-271.71875 158.289062 158.289062v103.785157zm0 0" fill="#f4efed"/><path d="m69.992188 276.214844 271.710937-271.714844 13.089844 13.089844-271.714844 271.714844zm0 0" fill="#fff"/><path d="m500 240.394531-232.914062 232.917969 13.085937 13.085938 219.828125-219.824219zm0 0" fill="#d6d1cf"/><path d="m500 266.574219-51.890625-51.894531 51.890625-51.890626zm0 0" fill="#ff4397"/><path d="m280.171875 490.398438c-1.023437 0-2.046875-.390626-2.828125-1.171876l-210.179688-210.179687c-1.5625-1.5625-1.5625-4.09375 0-5.65625l271.71875-271.71875c1.558594-1.5625 4.09375-1.5625 5.65625 0l158.289063 158.289063c.75.75 1.171875 1.769531 1.171875 2.828124v103.785157c0 1.058593-.421875 2.078125-1.171875 2.828125l-219.828125 219.824218c-.777344.78125-1.800781 1.171876-2.828125 1.171876zm-204.523437-214.179688 204.523437 204.523438 215.828125-215.828126v-100.46875l-154.289062-154.289062zm0 0" fill="#690589"/><path d="m500 270.574219c-1.042969 0-2.066406-.40625-2.832031-1.171875l-51.890625-51.894532c-1.5625-1.5625-1.5625-4.09375 0-5.65625l51.890625-51.890624c1.144531-1.144532 2.867187-1.488282 4.359375-.867188 1.496094.621094 2.46875 2.078125 2.46875 3.695312v103.785157c0 1.617187-.972656 3.074219-2.46875 3.695312-.492188.203125-1.011719.304688-1.527344.304688zm-46.234375-55.894531 42.234375 42.234374v-84.46875zm0 0" fill="#690589"/><path d="m174.679688 220.871094-16.96875-40.113282h-93.765626c-11.078124 0-20.058593 8.980469-20.058593 20.054688v277.148438c0 11.074218 8.980469 20.054687 20.058593 20.054687h323.394532c11.074218 0 20.054687-8.980469 20.054687-20.054687v-237.035157c0-11.078125-8.980469-20.054687-20.054687-20.054687zm0 0" fill="#dea42e"/><path d="m387.339844 502.015625h-323.394532c-13.265624 0-24.058593-10.792969-24.058593-24.054687v-277.148438c0-13.261719 10.792969-24.054688 24.058593-24.054688h93.765626c1.605468 0 3.058593.960938 3.683593 2.441407l15.9375 37.671875h210.007813c13.261718 0 24.054687 10.789062 24.054687 24.054687v237.035157c0 13.261718-10.792969 24.054687-24.054687 24.054687zm-323.394532-317.257813c-8.855468 0-16.058593 7.203126-16.058593 16.054688v277.148438c0 8.851562 7.203125 16.054687 16.058593 16.054687h323.394532c8.855468 0 16.054687-7.203125 16.054687-16.054687v-237.035157c0-8.855469-7.199219-16.054687-16.054687-16.054687h-212.660156c-1.609376 0-3.058594-.964844-3.683594-2.445313l-15.9375-37.667969zm0 0" fill="#690589"/><path d="m423.222656 470.289062h-297.242187v-384.269531h223.855469l73.386718 73.386719zm0 0" fill="#f4efed"/><path d="m125.980469 86.019531h18.507812v384.269531h-18.507812zm0 0" fill="#fff"/><path d="m404.710938 140.898438v329.390624h18.511718v-310.882812zm0 0" fill="#d6d1cf"/><path d="m423.222656 159.40625h-73.386718v-73.386719zm0 0" fill="#7bac51"/><g fill="#690589"><path d="m423.222656 474.289062h-297.242187c-2.207031 0-4-1.792968-4-4v-384.269531c0-2.207031 1.792969-4 4-4h223.855469c1.058593 0 2.078124.421875 2.828124 1.171875l73.386719 73.386719c.75.75 1.171875 1.769531 1.171875 2.828125v310.882812c0 2.207032-1.792968 4-4 4zm-293.242187-8h289.242187v-305.226562l-71.046875-71.042969h-218.195312zm0 0"/><path d="m423.222656 163.40625h-73.386718c-2.207032 0-4-1.789062-4-4v-73.386719c0-1.617187.972656-3.074219 2.46875-3.695312 1.496093-.617188 3.21875-.273438 4.359374.867187l73.386719 73.386719c1.144531 1.144531 1.484375 2.863281.867188 4.359375-.621094 1.492188-2.078125 2.46875-3.695313 2.46875zm-69.390625-8h59.730469l-59.730469-59.730469zm0 0"/><path d="m274.597656 143.726562h-113.363281c-2.207031 0-4-1.792968-4-4 0-2.210937 1.792969-4 4-4h113.363281c2.210938 0 4 1.789063 4 4 0 2.207032-1.789062 4-4 4zm0 0"/><path d="m386.527344 188.234375h-225.292969c-2.207031 0-4-1.792969-4-4 0-2.210937 1.792969-4 4-4h225.292969c2.207031 0 4 1.789063 4 4 0 2.207031-1.789063 4-4 4zm0 0"/><path d="m386.527344 232.742188h-225.292969c-2.207031 0-4-1.792969-4-4 0-2.207032 1.792969-4 4-4h225.292969c2.207031 0 4 1.792968 4 4 0 2.207031-1.789063 4-4 4zm0 0"/></g><path d="m418.96875 278.871094-210.183594 210.179687-204.785156-204.785156 158.289062-158.289063h103.785157zm0 0" fill="#f4efed"/><path d="m3.996094 284.265625 13.089844-13.089844 201.988281 201.992188-13.085938 13.085937zm0 0" fill="#fff"/><path d="m239.894531 125.976562 165.984375 165.980469 13.089844-13.085937-152.894531-152.894532zm0 0" fill="#d6d1cf"/><path d="m266.074219 125.976562-51.894531 51.890626-51.890626-51.890626zm0 0" fill="#fcc24c"/><path d="m208.785156 493.050781c-1.023437 0-2.046875-.390625-2.828125-1.171875l-204.785156-204.785156c-1.5625-1.5625-1.5625-4.09375 0-5.65625l158.289063-158.289062c.75-.75 1.769531-1.171876 2.828124-1.171876h103.785157c1.058593 0 2.078125.421876 2.828125 1.171876l152.894531 152.894531c.75.75 1.171875 1.765625 1.171875 2.828125 0 1.058594-.421875 2.074218-1.171875 2.824218l-210.183594 210.183594c-.78125.78125-1.804687 1.171875-2.828125 1.171875zm-199.128906-208.785156 199.128906 199.128906 204.527344-204.523437-148.894531-148.894532h-100.46875zm0 0" fill="#690589"/><path d="m214.179688 181.867188c-1.058594 0-2.078126-.421876-2.828126-1.171876l-51.890624-51.890624c-1.144532-1.144532-1.484376-2.867188-.867188-4.359376.621094-1.496093 2.078125-2.46875 3.695312-2.46875h103.785157c1.617187 0 3.074219.972657 3.695312 2.464844.621094 1.496094.277344 3.21875-.867187 4.363282l-51.894532 51.890624c-.75.75-1.765624 1.171876-2.828124 1.171876zm-42.230469-51.890626 42.230469 42.234376 42.234374-42.238282zm0 0" fill="#690589"/><path d="m66.902344 301.3125c-1.023438 0-2.046875-.390625-2.828125-1.171875-1.5625-1.5625-1.5625-4.09375 0-5.65625l80.164062-80.164063c1.558594-1.5625 4.09375-1.5625 5.65625 0s1.5625 4.09375 0 5.65625l-80.164062 80.164063c-.777344.78125-1.804688 1.171875-2.828125 1.171875zm0 0" fill="#690589"/><path d="m98.375 332.785156c-1.023438 0-2.046875-.390625-2.828125-1.175781-1.5625-1.558594-1.5625-4.09375 0-5.652344l159.308594-159.308593c1.558593-1.5625 4.097656-1.5625 5.65625 0 1.5625 1.5625 1.5625 4.09375 0 5.65625l-159.308594 159.304687c-.78125.78125-1.804687 1.175781-2.828125 1.175781zm0 0" fill="#690589"/><path d="m129.84375 364.253906c-1.023438 0-2.046875-.386718-2.828125-1.171875-1.558594-1.5625-1.558594-4.09375 0-5.65625l159.308594-159.304687c1.5625-1.5625 4.097656-1.5625 5.65625 0 1.5625 1.558594 1.5625 4.09375 0 5.652344l-159.308594 159.308593c-.777344.785157-1.800781 1.171875-2.828125 1.171875zm0 0" fill="#690589"/><path d="m427.453125 498.015625h-323.394531c-11.078125 0-20.058594-8.980469-20.058594-20.054687v-196.921876c0-11.074218 8.980469-20.054687 20.058594-20.054687h323.394531c11.074219 0 20.054687 8.980469 20.054687 20.054687v196.921876c0 11.074218-8.980468 20.054687-20.054687 20.054687zm0 0" fill="#fcc24c"/><path d="m427.453125 260.980469h-19.308594c11.074219 0 20.054688 8.980469 20.054688 20.058593v196.921876c0 11.074218-8.980469 20.054687-20.054688 20.054687h19.308594c11.074219 0 20.054687-8.980469 20.054687-20.054687v-196.921876c0-11.078124-8.980468-20.058593-20.054687-20.058593zm0 0" fill="#dea42e"/><path d="m104.058594 498.015625h19.308594c-11.078126 0-20.058594-8.980469-20.058594-20.054687v-196.921876c0-11.074218 8.980468-20.054687 20.058594-20.054687h-19.308594c-11.078125 0-20.058594 8.980469-20.058594 20.054687v196.921876c0 11.074218 8.980469 20.054687 20.058594 20.054687zm0 0" fill="#fce06a"/><path d="m427.453125 502.015625h-323.394531c-13.265625 0-24.058594-10.792969-24.058594-24.054687v-196.921876c0-13.265624 10.792969-24.054687 24.058594-24.054687h323.394531c13.261719 0 24.054687 10.789063 24.054687 24.054687v196.921876c0 13.261718-10.792968 24.054687-24.054687 24.054687zm-323.394531-237.035156c-8.855469 0-16.058594 7.203125-16.058594 16.058593v196.917969c0 8.855469 7.207031 16.054688 16.058594 16.054688h323.394531c8.851563 0 16.054687-7.199219 16.054687-16.054688v-196.917969c0-8.855468-7.203124-16.058593-16.054687-16.058593zm0 0" fill="#690589"/><path d="m104.800781 329.261719c-2.210937 0-4-1.789063-4-4v-24c0-2.207031 1.789063-4 4-4 2.207031 0 4 1.792969 4 4v24c0 2.210937-1.792969 4-4 4zm0 0" fill="#690589"/></svg>